{
.appVersion = "3149";
.formatVersion = 3;
DisplayStrings = (
"Blibiy
Baibiy
Baibiy

Balibilly
Blibilly

B n/n.001/n.001 n/a.001/a.001 a/a.002   l i b i l l y


",
"nnnnnnn
oooooo 
non/Placeholder non
nno/Placeholder on/Placeholder no/Placeholder on
nnonon 
nnoonn
lvl
nolibon monolindo
nolibdpqhi linioaoynvn
lalalalalalala
vlindavan valad alaialalammaan bonno
lino ohla",
"lay ihiama blid b lavomo bim by iainnin vh oman l hi aan  nvoyhip lvm obdila dilaabl pahmn dina an anlad baah hllo poamno dna piopai ho ain oba  ap mani dpo oonplaa by naaliv pi obin nih lo danill lp qandan dii hlbd hlin min oni hld anon ani halpi hip alvai vyba abah dann oina poon py qn ihi aai mnil n aman iamo bo naionn dooa ai vnnin am maad aanida molna mlanina lnn inan dapiad pinl ladio naim a iaiava anl omylm alm aboa lmp avannah adoin boa aaonia aalo ihola lonavo vanin hnidian panol lnamn mandl poa min bdo diladiain aih olloqial naoo anal la aao ay inapabiliy alad aha ola hpaiaion oodol llvaa inda ild inho ann  opa mm lll dipibl mn haiolaion aamn adi lihho man aoi napom poblmi aa bvallani animaion baldoo loomi omnnon piphyi oppobio mohah bamq pilla vlanin",
"pai ia i hadanm olan dn poinn dim looon ondman dl adaa addiq iadam dann oplin hbinn hippndal mnnin bahnd poi dio mn yp la iil b adio l lavain obv ndpoo ond pa oadlin oiannol monmn viaion ponn alndin ndny in pida pam had lov hia niill ovh boo bam imp op ioba mplomban pllim qla yvandi pio and an opavdln ondivido ima ohola lionl ndalia ylan nin ana ibbl adiv nio balava oinaoy billi ooo olliiadavi a ni mnmnm n am pi pno aabl lod inon pvm valad ial diibo lavihod pinhad omal paaq om mpla hohoo milla baany nan a nayv liv nompld milodd lmoa ohla ld plmo ohva anilv vi nbo vmono anon philipp mii mimn hany ho i alpa bonno hypinoi phada il onlo nmaopho alla aliad ba hallaod pnn /_part.shoulder n onin omaq oliia opahn la namohayy hivali npompd ani vlid va alai alla nam",
"nn/_part.shoulder nvvy/_ytail ym
o/_part.shoulder/_part.stem nmm",
hil,
hnp,

glyphs = (
{
glyphname = B;
lastChange = "2022-12-13 03:17:50 +0000";
layers = (
{
anchors = (
{
name = bottom;
pos = (353,0);
},
{
name = top;
pos = (353,700);
}
);
background = {
shapes = (
{
closed = 1;
nodes = (
(414,0,ls),
(557,0,o),
(657,80,o),
(657,197,cs),
(657,281,o),
(605,349,o),
(517,374,c),
(516,368,l),
(575,402,o),
(604,452,o),
(604,514,cs),
(604,625,o),
(512,700,o),
(377,700,cs),
(183,700,l),
(183,585,l),
(360,585,ls),
(426,585,o),
(463,554,o),
(463,500,cs),
(463,444,o),
(423,407,o),
(361,407,cs),
(183,407,l),
(183,298,l),
(392,298,ls),
(462,298,o),
(502,266,o),
(502,209,cs),
(502,148,o),
(456,115,o),
(377,115,cs),
(183,115,l),
(183,0,l)
);
},
{
closed = 1;
nodes = (
(218,0,l),
(218,700,l),
(68,700,l),
(68,0,l)
);
}
);
};
layerId = m009;
shapes = (
{
closed = 1;
nodes = (
(414,0,ls),
(545,0,o),
(637,81,o),
(637,195,cs),
(637,287,o),
(578,360,o),
(445,368,c),
(430,347,l),
(543,360,o),
(604,428,o),
(604,516,cs),
(604,624,o),
(513,700,o),
(377,700,cs),
(183,700,l),
(183,580,l),
(360,580,ls),
(426,580,o),
(463,551,o),
(463,500,cs),
(463,446,o),
(423,410,o),
(361,410,cs),
(183,410,l),
(183,301,l),
(382,301,ls),
(445,301,o),
(482,268,o),
(482,209,cs),
(482,151,o),
(443,120,o),
(377,120,cs),
(183,120,l),
(183,0,l)
);
},
{
closed = 1;
nodes = (
(218,0,l),
(218,700,l),
(72,700,l),
(72,0,l)
);
}
);
width = 667;
},
{
anchors = (
{
name = bottom;
pos = (353,0);
},
{
name = top;
pos = (353,700);
}
);
associatedMasterId = m009;
background = {
shapes = (
{
closed = 0;
nodes = (
(621,312,l),
(645,281,o),
(657,243,o),
(657,198,c),
(657,157,o),
(647,121,o),
(626,91,c),
(605,61,o),
(576,38,o),
(539,23,c),
(502,8,o),
(460,0,o),
(413,0,c),
(185,0,l),
(185,118,l),
(381,118,l),
(420,118,o),
(450,126,o),
(469,142,c),
(488,158,o),
(498,180,o),
(498,209,c),
(498,239,o),
(487,261,o),
(466,276,c),
(445,291,o),
(415,298,o),
(377,298,c),
(185,298,l),
(185,407,l),
(368,407,l),
(387,407,o),
(403,411,o),
(418,418,c),
(432,425,o),
(443,436,o),
(451,449,c),
(459,462,o),
(463,477,o),
(463,494,c),
(463,522,o),
(454,544,o),
(435,559,c),
(416,574,o),
(391,582,o),
(360,582,c),
(185,582,l),
(185,700,l),
(378,700,l),
(426,700,o),
(467,692,o),
(501,675,c),
(535,658,o),
(561,636,o),
(578,608,c),
(595,579,o),
(604,547,o),
(604,510,c),
(604,483,o),
(599,458,o),
(590,437,c),
(581,416,o),
(569,398,o),
(554,383,c),
(538,369,o),
(523,357,o),
(506,349,c)
);
},
{
closed = 1;
nodes = (
(57,0,l),
(209,0,l),
(209,700,l),
(57,700,l)
);
}
);
};
layerId = "041D36F7-0399-4962-A461-FD44F4F7D82C";
name = "28 Oct 22 11.55";
shapes = (
{
closed = 1;
nodes = (
(414,0,ls),
(557,0,o),
(657,80,o),
(657,197,cs),
(657,281,o),
(605,349,o),
(517,374,c),
(516,368,l),
(575,402,o),
(604,452,o),
(604,514,cs),
(604,625,o),
(512,700,o),
(377,700,cs),
(183,700,l),
(183,585,l),
(360,585,ls),
(426,585,o),
(463,554,o),
(463,500,cs),
(463,444,o),
(423,407,o),
(361,407,cs),
(183,407,l),
(183,298,l),
(392,298,ls),
(462,298,o),
(502,266,o),
(502,209,cs),
(502,148,o),
(456,115,o),
(377,115,cs),
(183,115,l),
(183,0,l)
);
},
{
closed = 1;
nodes = (
(218,0,l),
(218,700,l),
(68,700,l),
(68,0,l)
);
}
);
width = 687;
}
);
unicode = 66;
},
{
glyphname = a;
lastChange = "2022-12-13 03:17:50 +0000";
layers = (
{
anchors = (
{
name = bottom;
pos = (251,0);
},
{
name = ogonek;
pos = (513,0);
},
{
name = top;
pos = (251,545);
}
);
background = {
shapes = (
{
closed = 1;
nodes = (
(533,95,o),
(513,106,o),
(513,146,cs),
(513,356,ls),
(513,482,o),
(423,555,o),
(266,555,cs),
(168,555,o),
(62,527,o),
(-19,479,c),
(27,537,l),
(79,379,l),
(14,372,l),
(97,419,o),
(165,440,o),
(231,440,cs),
(303,440,o),
(367,414,o),
(367,339,cs),
(367,128,ls),
(367,39,o),
(417,-10,o),
(489,-10,cs),
(537,-10,o),
(581,12,o),
(619,46,c),
(589,-69,l),
(550,151,l),
(580,109,l)
);
},
{
closed = 1;
nodes = (
(300,-10,o),
(390,63,o),
(419,178,c),
(365,239,l),
(358,150,o),
(302,89,o),
(218,89,cs),
(167,89,o),
(135,117,o),
(135,160,cs),
(135,233,o),
(224,261,o),
(385,233,c),
(395,307,l),
(153,362,o),
(-17,296,o),
(-17,151,cs),
(-17,53,o),
(60,-10,o),
(175,-10,cs)
);
}
);
};
layerId = m009;
shapes = (
{
closed = 1;
nodes = (
(504,123,l),
(554,65,l),
(493,30,o),
(469,54,o),
(469,127,cs),
(469,338,ls),
(469,473,o),
(403,555,o),
(265,555,cs),
(187,555,o),
(100,529,o),
(40,486,c),
(51,541,l),
(98,426,l),
(58,420,l),
(130,464,o),
(184,484,o),
(246,484,cs),
(349,484,o),
(390,430,o),
(390,336,cs),
(390,123,l),
(399,113,l),
(399,44,o),
(424,-10,o),
(491,-10,cs),
(518,-10,o),
(539,-1,o),
(558,12,c),
(551,-33,l)
);
},
{
closed = 1;
nodes = (
(301,-10,o),
(368,31,o),
(396,92,c),
(405,92,l),
(405,222,l),
(391,222,l),
(391,143,o),
(334,52,o),
(236,52,cs),
(168,52,o),
(127,95,o),
(127,156,cs),
(127,234,o),
(192,263,o),
(268,263,cs),
(315,263,o),
(372,252,o),
(407,233,c),
(407,297,l),
(387,297,l),
(353,309,o),
(307,320,o),
(254,320,cs),
(131,320,o),
(43,260,o),
(43,155,cs),
(43,56,o),
(121,-10,o),
(222,-10,cs)
);
}
);
width = 566;
},
{
anchors = (
{
name = bottom;
pos = (308,0);
},
{
name = ogonek;
pos = (570,0);
},
{
name = top;
pos = (308,545);
}
);
associatedMasterId = m009;
background = {
shapes = (
{
closed = 1;
nodes = (
(437,0,l),
(423,107,l),
(423,362,l),
(423,380,o),
(418,395,o),
(408,406,c),
(397,418,o),
(382,426,o),
(362,431,c),
(342,437,o),
(318,439,o),
(290,439,c),
(286,439,l),
(283,439,l),
(254,439,o),
(223,436,o),
(191,429,c),
(158,422,o),
(133,414,o),
(113,404,c),
(77,508,l),
(104,521,o),
(140,533,o),
(184,542,c),
(228,551,o),
(275,555,o),
(324,555,c),
(401,555,o),
(461,541,o),
(505,512,c),
(548,484,o),
(570,433,o),
(570,361,c),
(570,0,l)
);
},
{
closed = 1;
nodes = (
(222,-10,l),
(190,-10,o),
(160,-4,o),
(132,9,c),
(104,21,o),
(81,40,o),
(64,64,c),
(47,88,o),
(39,117,o),
(39,149,c),
(39,152,l),
(39,199,o),
(57,238,o),
(95,269,c),
(133,299,o),
(189,318,o),
(263,324,c),
(452,340,l),
(452,254,l),
(298,240,l),
(265,237,o),
(241,229,o),
(224,217,c),
(207,205,o),
(199,188,o),
(199,168,c),
(199,143,o),
(207,125,o),
(222,112,c),
(238,99,o),
(259,93,o),
(284,93,c),
(308,93,o),
(330,98,o),
(351,108,c),
(372,118,o),
(389,133,o),
(403,151,c),
(416,170,o),
(423,193,o),
(423,220,c),
(476,178,l),
(466,134,o),
(449,98,o),
(424,70,c),
(399,42,o),
(369,21,o),
(335,9,c),
(301,-4,o),
(266,-10,o),
(229,-10,c)
);
}
);
};
layerId = "90AA5CBF-A596-42C0-9008-AC44A3E9C24E";
name = "28 Oct 22 11.52";
shapes = (
{
closed = 1;
nodes = (
(590,95,o),
(570,106,o),
(570,146,cs),
(570,356,ls),
(570,482,o),
(480,555,o),
(323,555,cs),
(225,555,o),
(119,527,o),
(38,479,c),
(84,537,l),
(136,379,l),
(71,372,l),
(154,419,o),
(222,440,o),
(288,440,cs),
(360,440,o),
(424,414,o),
(424,339,cs),
(424,128,ls),
(424,39,o),
(474,-10,o),
(546,-10,cs),
(594,-10,o),
(638,12,o),
(676,46,c),
(646,-69,l),
(607,151,l),
(637,109,l)
);
},
{
closed = 1;
nodes = (
(357,-10,o),
(447,63,o),
(476,178,c),
(422,239,l),
(415,150,o),
(359,89,o),
(275,89,cs),
(224,89,o),
(192,117,o),
(192,160,cs),
(192,233,o),
(281,261,o),
(442,233,c),
(452,307,l),
(210,362,o),
(40,296,o),
(40,151,cs),
(40,53,o),
(117,-10,o),
(232,-10,cs)
);
}
);
width = 642;
}
);
unicode = 97;
},
{
glyphname = b;
lastChange = "2022-12-13 03:17:50 +0000";
layers = (
{
background = {
shapes = (
{
pos = (19,545);
ref = n;
scale = (1,-1);
}
);
};
layerId = m009;
shapes = (
{
closed = 1;
nodes = (
(139,0,l),
(159,76,l),
(160,118,l),
(148,151,l),
(148,443,l),
(159,450,l),
(159,750,l),
(82,750,l),
(82,0,l)
);
},
{
ref = _perut_b;
}
);
width = 606;
},
{
anchors = (
{
name = bottom;
pos = (343,0);
},
{
name = top;
pos = (343,750);
}
);
associatedMasterId = m009;
background = {
shapes = (
{
closed = 1;
nodes = (
(377,110,o),
(403,117,o),
(426,132,c),
(449,147,o),
(467,166,o),
(480,190,c),
(492,214,o),
(498,240,o),
(498,267,c),
(498,273,l),
(498,303,o),
(492,330,o),
(479,354,c),
(466,377,o),
(449,396,o),
(426,410,c),
(403,424,o),
(377,430,o),
(348,430,c),
(317,430,o),
(291,423,o),
(268,409,c),
(246,394,o),
(229,375,o),
(217,351,c),
(205,327,o),
(200,301,o),
(200,272,c),
(200,263,l),
(200,234,o),
(206,208,o),
(219,185,c),
(231,162,o),
(249,143,o),
(271,130,c),
(294,117,o),
(319,110,o),
(347,110,c)
);
},
{
closed = 1;
nodes = (
(344,-10,o),
(310,-4,o),
(279,8,c),
(249,21,o),
(224,37,o),
(204,58,c),
(184,79,o),
(168,102,o),
(158,128,c),
(158,410,l),
(166,437,o),
(179,461,o),
(198,482,c),
(217,504,o),
(242,521,o),
(272,533,c),
(302,545,o),
(336,552,o),
(374,552,c),
(427,552,o),
(474,539,o),
(515,514,c),
(556,489,o),
(587,455,o),
(610,413,c),
(633,370,o),
(644,324,o),
(644,273,c),
(644,264,l),
(644,211,o),
(633,163,o),
(610,122,c),
(587,81,o),
(555,48,o),
(515,25,c),
(475,1,o),
(431,-10,o),
(383,-10,c)
);
},
{
closed = 1;
nodes = (
(53,0,l),
(53,740,l),
(200,740,l),
(200,106,l),
(187,0,l)
);
}
);
};
layerId = "39D93B3F-3BBE-4227-9F9A-0897DBA04697";
name = "28 Oct 22 12.03";
shapes = (
{
closed = 1;
nodes = (
(167,0,l),
(199,106,l),
(199,740,l),
(53,740,l),
(53,0,l)
);
},
{
closed = 1;
nodes = (
(522,-10,o),
(637,99,o),
(637,276,cs),
(637,447,o),
(532,555,o),
(392,555,cs),
(303,555,o),
(232,511,o),
(187,441,c),
(182,103,l),
(232,27,o),
(298,-10,o),
(387,-10,cs)
);
},
{
closed = 1;
nodes = (
(263,107,o),
(206,177,o),
(206,272,cs),
(206,367,o),
(263,435,o),
(349,435,cs),
(432,435,o),
(488,376,o),
(488,274,cs),
(488,169,o),
(428,107,o),
(346,107,cs)
);
}
);
width = 660;
}
);
metricLeft = h;
metricRight = o;
unicode = 98;
},
{
glyphname = d;
lastChange = "2022-12-13 03:17:50 +0000";
layers = (
{
background = {
shapes = (
{
pos = (586,0);
ref = b;
scale = (-1,1);
}
);
};
layerId = m009;
shapes = (
{
closed = 1;
nodes = (
(528,0,l),
(528,750,l),
(451,750,l),
(451,450,l),
(462,443,l),
(462,151,l),
(443,118,l),
(443,106,l),
(471,0,l)
);
},
{
pos = (5,0);
ref = _perut_d;
}
);
width = 610;
}
);
metricLeft = o;
metricRight = "=|h";
unicode = 100;
},
{
glyphname = i;
lastChange = "2022-12-13 03:17:50 +0000";
layers = (
{
anchors = (
{
name = bottom;
pos = (142,0);
},
{
name = ogonek;
pos = (166,0);
},
{
name = top;
pos = (142,545);
}
);
background = {
shapes = (
{
closed = 1;
nodes = (
(46,609,l),
(202,609,l),
(202,740,l),
(46,740,l)
);
},
{
closed = 1;
nodes = (
(52,0,l),
(198,0,l),
(198,542,l),
(52,542,l)
);
}
);
};
guides = (
{
angle = 90;
pos = (219,201);
},
{
angle = 270;
pos = (51,201);
},
{
pos = (193,568);
}
);
layerId = m009;
shapes = (
{
closed = 1;
nodes = (
(171,662,l),
(171,750,l),
(85,750,l),
(85,662,l)
);
},
{
closed = 1;
nodes = (
(166,0,l),
(166,545,l),
(89,545,l),
(89,0,l)
);
}
);
width = 256;
}
);
unicode = 105;
},
{
glyphname = l;
lastChange = "2022-12-13 03:17:50 +0000";
layers = (
{
background = {
shapes = (
{
pos = (-309,0);
ref = a;
}
);
};
layerId = m009;
shapes = (
{
closed = 1;
nodes = (
(197,-10,o),
(211,-7,o),
(229,2,c),
(208,68,l),
(224,62,l),
(171,39,o),
(155,72,o),
(155,116,cs),
(155,750,l),
(78,750,l),
(78,123,ls),
(78,38,o),
(116,-10,o),
(181,-10,cs)
);
}
);
width = 264;
}
);
unicode = 108;
},
{
glyphname = m;
lastChange = "2022-12-13 03:17:50 +0000";
layers = (
{
anchors = (
{
name = connect;
pos = (510,0);
}
);
background = {
shapes = (
{
pos = (311,0);
ref = n;
}
);
};
layerId = m009;
shapes = (
{
alignment = -1;
pos = (38,0);
ref = _part.stem;
},
{
closed = 1;
nodes = (
(494,0,l),
(494,341,ls),
(494,478,o),
(431,555,o),
(320,555,cs),
(250,555,o),
(200,525,o),
(162,469,c),
(151,469,l),
(151,336,l),
(159,336,l),
(165,415,o),
(215,487,o),
(304,487,cs),
(377,487,o),
(418,439,o),
(418,341,cs),
(418,0,l)
);
},
{
closed = 1;
nodes = (
(829,0,l),
(829,345,ls),
(829,481,o),
(757,555,o),
(650,555,cs),
(586,555,o),
(518,527,o),
(475,463,c),
(464,463,l),
(484,336,l),
(494,336,l),
(500,425,o),
(554,487,o),
(635,487,cs),
(707,487,o),
(752,438,o),
(752,341,cs),
(752,0,l)
);
}
);
width = 902;
}
);
metricLeft = n;
metricRight = n;
unicode = 109;
},
{
glyphname = o;
lastChange = "2022-12-13 03:17:50 +0000";
layers = (
{
background = {
shapes = (
{
pos = (42,0);
ref = n;
}
);
};
layerId = m009;
shapes = (
{
closed = 1;
nodes = (
(443,-10,o),
(554,87,o),
(554,273,cs),
(554,459,o),
(443,555,o),
(302,555,cs),
(161,555,o),
(50,459,o),
(50,273,cs),
(50,87,o),
(161,-10,o),
(302,-10,cs)
);
},
{
closed = 1;
nodes = (
(210,63,o),
(128,119,o),
(128,273,cs),
(128,427,o),
(210,482,o),
(302,482,cs),
(394,482,o),
(476,427,o),
(476,273,cs),
(476,119,o),
(394,63,o),
(302,63,cs)
);
}
);
width = 604;
}
);
metricRight = "=|";
unicode = 111;
},
{
glyphname = p;
lastChange = "2022-12-13 03:17:50 +0000";
layers = (
{
background = {
shapes = (
{
pos = (24,0);
ref = b;
}
);
};
guides = (
{
pos = (1043,869);
}
);
layerId = m009;
shapes = (
{
closed = 1;
nodes = (
(159,-205,l),
(159,95,l),
(148,102,l),
(148,394,l),
(164,427,l),
(164,449,l),
(138,545,l),
(82,545,l),
(82,-205,l)
);
},
{
ref = _perut_b;
}
);
width = 606;
}
);
metricLeft = n;
metricRight = o;
unicode = 112;
},
{
glyphname = q;
lastChange = "2022-12-13 03:17:50 +0000";
layers = (
{
anchors = (
{
name = bottom;
pos = (265,0);
}
);
background = {
shapes = (
{
pos = (585,0);
ref = p;
scale = (-1,1);
}
);
};
layerId = m009;
shapes = (
{
closed = 1;
nodes = (
(527,-205,l),
(527,545,l),
(471,545,l),
(450,469,l),
(450,437,l),
(461,413,l),
(461,102,l),
(450,95,l),
(450,-205,l)
);
},
{
pos = (5,0);
ref = _perut_d;
}
);
width = 609;
}
);
metricLeft = o;
metricRight = "=|n";
unicode = 113;
},
{
glyphname = v;
lastChange = "2022-12-13 03:17:50 +0000";
layers = (
{
anchors = (
{
name = ytail;
pos = (245,0);
}
);
background = {
shapes = (
{
closed = 1;
nodes = (
(427,545,l),
(241,106,l),
(54,545,l),
(-28,545,l),
(206,0,l),
(276,0,l),
(509,545,l)
);
},
{
pos = (-9,0);
ref = n;
}
);
};
layerId = m009;
shapes = (
{
closed = 1;
nodes = (
(280,0,l),
(473,545,l),
(392,545,l),
(245,79,l),
(258,79,l),
(99,545,l),
(18,545,l),
(218,0,l)
);
}
);
width = 491;
}
);
unicode = 118;
},
{
glyphname = y;
lastChange = "2022-12-13 03:17:50 +0000";
layers = (
{
background = {
shapes = (
{
closed = 1;
nodes = (
(6,-156,l),
(25,-169,o),
(46,-178,o),
(73,-178,cs),
(138,-178,o),
(165,-124,o),
(165,-55,c),
(173,-45,l),
(173,168,ls),
(173,262,o),
(215,316,o),
(317,316,cs),
(380,316,o),
(434,296,o),
(506,252,c),
(466,258,l),
(513,373,l),
(524,318,l),
(464,361,o),
(377,387,o),
(302,387,cs),
(161,387,o),
(97,305,o),
(97,170,cs),
(97,-41,ls),
(97,-114,o),
(71,-138,o),
(10,-103,c),
(60,-45,l),
(13,-201,l)
);
},
{
closed = 1;
nodes = (
(443,-178,o),
(521,-112,o),
(521,-13,cs),
(521,92,o),
(433,152,o),
(310,152,cs),
(257,152,o),
(211,141,o),
(177,129,c),
(157,129,l),
(157,65,l),
(192,84,o),
(249,94,o),
(295,94,cs),
(372,94,o),
(435,66,o),
(435,-12,cs),
(435,-73,o),
(396,-116,o),
(328,-116,cs),
(230,-116,o),
(173,-25,o),
(173,54,c),
(159,54,l),
(159,-76,l),
(168,-76,l),
(196,-137,o),
(263,-178,o),
(342,-178,cs)
);
}
);
};
layerId = m009;
shapes = (
{
ref = v;
},
{
pos = (-5,0);
ref = _ytail;
}
);
width = 491;
},
{
anchors = (
{
name = bottom;
pos = (266,0);
},
{
name = top;
pos = (266,545);
}
);
associatedMasterId = m009;
background = {
shapes = (
{
closed = 1;
nodes = (
(104,-186,o),
(87,-184,o),
(68,-178,c),
(49,-173,o),
(33,-168,o),
(20,-161,c),
(41,-60,l),
(42,-60,o),
(44,-60,o),
(45,-61,c),
(46,-61,o),
(48,-61,o),
(49,-61,c),
(63,-65,o),
(77,-66,o),
(91,-66,c),
(111,-66,o),
(128,-63,o),
(140,-57,c),
(153,-50,o),
(163,-40,o),
(171,-25,c),
(180,-10,o),
(188,10,o),
(196,37,c),
(206,73,l),
(324,73,l),
(315,1,l),
(300,-33,l),
(297,-38,o),
(294,-43,o),
(292,-47,c),
(290,-52,o),
(288,-57,o),
(286,-61,c),
(272,-94,o),
(257,-118,o),
(243,-136,c),
(228,-153,o),
(211,-166,o),
(192,-174,c),
(172,-182,o),
(148,-186,o),
(120,-186,c)
);
},
{
closed = 1;
nodes = (
(195,1,l),
(-34,545,l),
(107,545,l),
(269,158,l),
(249,158,l),
(398,545,l),
(541,545,l),
(315,1,l)
);
}
);
};
layerId = "465E898B-A340-4BA7-806E-E5599B776A13";
name = "28 Oct 22 12.01";
shapes = (
{
closed = 1;
nodes = (
(221,-186,o),
(266,-134,o),
(320,0,cs),
(541,545,l),
(388,545,l),
(253,144,l),
(270,144,l),
(120,545,l),
(-33,545,l),
(195,0,l),
(233,0,l),
(195,37,l),
(201,-49,o),
(144,-67,o),
(106,-67,cs),
(58,-67,o),
(17,-50,o),
(-7,-39,c),
(52,-20,l),
(13,-197,l),
(-15,-146,l),
(23,-166,o),
(79,-186,o),
(125,-186,cs)
);
}
);
width = 508;
}
);
metricLeft = v;
metricRight = v;
unicode = 121;
},
{
glyphname = a.001;
lastChange = "2022-12-13 03:17:50 +0000";
layers = (
{
anchors = (
{
name = bottom;
pos = (266,0);
},
{
name = top;
pos = (266,545);
}
);
background = {
shapes = (
{
closed = 1;
nodes = (
(529,116,l),
(573,62,l),
(512,32,o),
(484,49,o),
(484,120,cs),
(484,340,ls),
(484,486,o),
(420,555,o),
(283,555,cs),
(204,555,o),
(117,528,o),
(57,482,c),
(68,541,l),
(115,431,l),
(75,431,l),
(147,475,o),
(190,493,o),
(265,493,cs),
(366,493,o),
(408,446,o),
(408,336,cs),
(408,123,l),
(414,113,l),
(414,35,o),
(446,-10,o),
(512,-10,cs),
(539,-10,o),
(558,-2,o),
(577,12,c),
(571,-33,l)
);
},
{
closed = 1;
nodes = (
(359,-10,o),
(442,101,o),
(442,200,c),
(408,263,l),
(408,139,o),
(341,48,o),
(236,48,cs),
(163,48,o),
(125,92,o),
(125,157,cs),
(125,235,o),
(178,279,o),
(285,279,cs),
(361,279,o),
(389,271,o),
(424,249,c),
(434,306,l),
(400,323,o),
(354,335,o),
(281,335,cs),
(142,335,o),
(41,260,o),
(41,149,cs),
(41,56,o),
(119,-10,o),
(230,-10,cs)
);
}
);
};
layerId = m009;
shapes = (
{
closed = 1;
nodes = (
(519,123,l),
(569,65,l),
(508,30,o),
(482,54,o),
(482,127,cs),
(482,338,ls),
(482,473,o),
(418,555,o),
(277,555,cs),
(202,555,o),
(115,532,o),
(55,488,c),
(66,541,l),
(113,426,l),
(73,419,l),
(145,463,o),
(199,484,o),
(262,484,cs),
(364,484,o),
(406,430,o),
(406,336,cs),
(406,123,l),
(414,113,l),
(414,44,o),
(441,-10,o),
(506,-10,cs),
(533,-10,o),
(554,-1,o),
(573,12,c),
(566,-33,l)
);
},
{
closed = 1;
nodes = (
(357,-10,o),
(440,83,o),
(440,200,c),
(406,222,l),
(406,143,o),
(349,52,o),
(251,52,cs),
(183,52,o),
(144,95,o),
(144,156,cs),
(144,234,o),
(207,262,o),
(284,262,cs),
(330,262,o),
(387,252,o),
(422,233,c),
(432,286,l),
(398,300,o),
(339,320,o),
(269,320,cs),
(146,320,o),
(58,260,o),
(58,155,cs),
(58,56,o),
(136,-10,o),
(237,-10,cs)
);
}
);
width = 620;
},
{
anchors = (
{
name = bottom;
pos = (308,0);
},
{
name = ogonek;
pos = (570,0);
},
{
name = top;
pos = (308,545);
}
);
associatedMasterId = m009;
background = {
shapes = (
{
closed = 1;
nodes = (
(437,0,l),
(423,107,l),
(423,362,l),
(423,380,o),
(418,395,o),
(408,406,c),
(397,418,o),
(382,426,o),
(362,431,c),
(342,437,o),
(318,439,o),
(290,439,c),
(286,439,l),
(283,439,l),
(254,439,o),
(223,436,o),
(191,429,c),
(158,422,o),
(133,414,o),
(113,404,c),
(77,508,l),
(104,521,o),
(140,533,o),
(184,542,c),
(228,551,o),
(275,555,o),
(324,555,c),
(401,555,o),
(461,541,o),
(505,512,c),
(548,484,o),
(570,433,o),
(570,361,c),
(570,0,l)
);
},
{
closed = 1;
nodes = (
(222,-10,l),
(190,-10,o),
(160,-4,o),
(132,9,c),
(104,21,o),
(81,40,o),
(64,64,c),
(47,88,o),
(39,117,o),
(39,149,c),
(39,152,l),
(39,199,o),
(57,238,o),
(95,269,c),
(133,299,o),
(189,318,o),
(263,324,c),
(452,340,l),
(452,254,l),
(298,240,l),
(265,237,o),
(241,229,o),
(224,217,c),
(207,205,o),
(199,188,o),
(199,168,c),
(199,143,o),
(207,125,o),
(222,112,c),
(238,99,o),
(259,93,o),
(284,93,c),
(308,93,o),
(330,98,o),
(351,108,c),
(372,118,o),
(389,133,o),
(403,151,c),
(416,170,o),
(423,193,o),
(423,220,c),
(476,178,l),
(466,134,o),
(449,98,o),
(424,70,c),
(399,42,o),
(369,21,o),
(335,9,c),
(301,-4,o),
(266,-10,o),
(229,-10,c)
);
}
);
};
layerId = "90AA5CBF-A596-42C0-9008-AC44A3E9C24E";
name = "28 Oct 22 11.52";
shapes = (
{
closed = 1;
nodes = (
(590,95,o),
(570,106,o),
(570,146,cs),
(570,356,ls),
(570,482,o),
(480,555,o),
(323,555,cs),
(225,555,o),
(119,527,o),
(38,479,c),
(84,537,l),
(136,379,l),
(71,372,l),
(154,419,o),
(222,440,o),
(288,440,cs),
(360,440,o),
(424,414,o),
(424,339,cs),
(424,128,ls),
(424,39,o),
(474,-10,o),
(546,-10,cs),
(594,-10,o),
(638,12,o),
(676,46,c),
(646,-69,l),
(607,151,l),
(637,109,l)
);
},
{
closed = 1;
nodes = (
(357,-10,o),
(447,63,o),
(476,178,c),
(422,239,l),
(415,150,o),
(359,89,o),
(275,89,cs),
(224,89,o),
(192,117,o),
(192,160,cs),
(192,233,o),
(281,261,o),
(442,233,c),
(452,307,l),
(210,362,o),
(40,296,o),
(40,151,cs),
(40,53,o),
(117,-10,o),
(232,-10,cs)
);
}
);
width = 642;
}
);
},
{
glyphname = a.002;
lastChange = "2022-12-13 03:17:50 +0000";
layers = (
{
anchors = (
{
name = bottom;
pos = (266,0);
},
{
name = ogonek;
pos = (528,0);
},
{
name = top;
pos = (266,545);
}
);
background = {
shapes = (
{
closed = 1;
nodes = (
(543,116,l),
(587,62,l),
(526,29,o),
(500,49,o),
(500,120,cs),
(500,340,ls),
(500,486,o),
(426,555,o),
(286,555,cs),
(220,555,o),
(154,532,o),
(83,482,c),
(96,541,l),
(144,425,l),
(99,433,l),
(174,477,o),
(214,493,o),
(290,493,cs),
(385,493,o),
(432,441,o),
(432,336,cs),
(432,123,l),
(439,113,l),
(439,35,o),
(472,-10,o),
(526,-10,cs),
(553,-10,o),
(572,-2,o),
(591,12,c),
(585,-33,l)
);
},
{
closed = 1;
nodes = (
(364,-10,o),
(445,72,o),
(456,173,c),
(433,263,l),
(433,139,o),
(357,47,o),
(253,47,cs),
(184,47,o),
(144,87,o),
(144,157,cs),
(144,235,o),
(204,279,o),
(311,279,cs),
(377,279,o),
(416,265,o),
(450,243,c),
(460,300,l),
(426,319,o),
(370,335,o),
(307,335,cs),
(167,335,o),
(72,260,o),
(72,149,cs),
(72,52,o),
(140,-10,o),
(247,-10,cs)
);
}
);
};
layerId = m009;
shapes = (
{
closed = 1;
nodes = (
(555,116,l),
(599,62,l),
(538,26,o),
(510,49,o),
(510,120,cs),
(510,340,ls),
(510,486,o),
(436,555,o),
(302,555,cs),
(223,555,o),
(145,529,o),
(83,482,c),
(96,541,l),
(144,425,l),
(99,433,l),
(170,478,o),
(224,495,o),
(297,495,cs),
(400,495,o),
(442,446,o),
(442,336,cs),
(442,123,l),
(449,113,l),
(449,35,o),
(482,-10,o),
(538,-10,cs),
(565,-10,o),
(584,-2,o),
(603,12,c),
(597,-33,l)
);
},
{
closed = 1;
nodes = (
(377,-10,o),
(457,77,o),
(468,178,c),
(443,263,l),
(443,139,o),
(367,44,o),
(260,44,cs),
(189,44,o),
(140,92,o),
(140,157,cs),
(140,235,o),
(204,279,o),
(311,279,cs),
(387,279,o),
(426,265,o),
(460,243,c),
(470,300,l),
(436,319,o),
(380,335,o),
(307,335,cs),
(168,335,o),
(72,260,o),
(72,149,cs),
(72,53,o),
(149,-10,o),
(252,-10,cs)
);
}
);
width = 620;
},
{
anchors = (
{
name = bottom;
pos = (308,0);
},
{
name = ogonek;
pos = (570,0);
},
{
name = top;
pos = (308,545);
}
);
associatedMasterId = m009;
background = {
shapes = (
{
closed = 1;
nodes = (
(437,0,l),
(423,107,l),
(423,362,l),
(423,380,o),
(418,395,o),
(408,406,c),
(397,418,o),
(382,426,o),
(362,431,c),
(342,437,o),
(318,439,o),
(290,439,c),
(286,439,l),
(283,439,l),
(254,439,o),
(223,436,o),
(191,429,c),
(158,422,o),
(133,414,o),
(113,404,c),
(77,508,l),
(104,521,o),
(140,533,o),
(184,542,c),
(228,551,o),
(275,555,o),
(324,555,c),
(401,555,o),
(461,541,o),
(505,512,c),
(548,484,o),
(570,433,o),
(570,361,c),
(570,0,l)
);
},
{
closed = 1;
nodes = (
(222,-10,l),
(190,-10,o),
(160,-4,o),
(132,9,c),
(104,21,o),
(81,40,o),
(64,64,c),
(47,88,o),
(39,117,o),
(39,149,c),
(39,152,l),
(39,199,o),
(57,238,o),
(95,269,c),
(133,299,o),
(189,318,o),
(263,324,c),
(452,340,l),
(452,254,l),
(298,240,l),
(265,237,o),
(241,229,o),
(224,217,c),
(207,205,o),
(199,188,o),
(199,168,c),
(199,143,o),
(207,125,o),
(222,112,c),
(238,99,o),
(259,93,o),
(284,93,c),
(308,93,o),
(330,98,o),
(351,108,c),
(372,118,o),
(389,133,o),
(403,151,c),
(416,170,o),
(423,193,o),
(423,220,c),
(476,178,l),
(466,134,o),
(449,98,o),
(424,70,c),
(399,42,o),
(369,21,o),
(335,9,c),
(301,-4,o),
(266,-10,o),
(229,-10,c)
);
}
);
};
layerId = "90AA5CBF-A596-42C0-9008-AC44A3E9C24E";
name = "28 Oct 22 11.52";
shapes = (
{
closed = 1;
nodes = (
(590,95,o),
(570,106,o),
(570,146,cs),
(570,356,ls),
(570,482,o),
(480,555,o),
(323,555,cs),
(225,555,o),
(119,527,o),
(38,479,c),
(84,537,l),
(136,379,l),
(71,372,l),
(154,419,o),
(222,440,o),
(288,440,cs),
(360,440,o),
(424,414,o),
(424,339,cs),
(424,128,ls),
(424,39,o),
(474,-10,o),
(546,-10,cs),
(594,-10,o),
(638,12,o),
(676,46,c),
(646,-69,l),
(607,151,l),
(637,109,l)
);
},
{
closed = 1;
nodes = (
(357,-10,o),
(447,63,o),
(476,178,c),
(422,239,l),
(415,150,o),
(359,89,o),
(275,89,cs),
(224,89,o),
(192,117,o),
(192,160,cs),
(192,233,o),
(281,261,o),
(442,233,c),
(452,307,l),
(210,362,o),
(40,296,o),
(40,151,cs),
(40,53,o),
(117,-10,o),
(232,-10,cs)
);
}
);
width = 642;
}
);
},
{
glyphname = a.003;
lastChange = "2022-12-13 03:17:50 +0000";
layers = (
{
anchors = (
{
name = bottom;
pos = (266,0);
},
{
name = ogonek;
pos = (528,0);
},
{
name = top;
pos = (266,545);
}
);
background = {
shapes = (
{
closed = 1;
nodes = (
(548,95,o),
(528,106,o),
(528,146,cs),
(528,356,ls),
(528,482,o),
(438,555,o),
(281,555,cs),
(183,555,o),
(77,527,o),
(-4,479,c),
(42,537,l),
(94,379,l),
(29,372,l),
(112,419,o),
(180,440,o),
(246,440,cs),
(318,440,o),
(382,414,o),
(382,339,cs),
(382,128,ls),
(382,39,o),
(432,-10,o),
(504,-10,cs),
(552,-10,o),
(596,12,o),
(634,46,c),
(604,-69,l),
(565,151,l),
(595,109,l)
);
},
{
closed = 1;
nodes = (
(315,-10,o),
(405,63,o),
(434,178,c),
(380,239,l),
(373,150,o),
(317,89,o),
(233,89,cs),
(182,89,o),
(150,117,o),
(150,160,cs),
(150,233,o),
(239,261,o),
(400,233,c),
(410,307,l),
(168,362,o),
(-2,296,o),
(-2,151,cs),
(-2,53,o),
(75,-10,o),
(190,-10,cs)
);
}
);
};
layerId = m009;
shapes = (
{
closed = 1;
nodes = (
(547,83,o),
(528,113,o),
(528,146,cs),
(528,336,ls),
(528,482,o),
(436,555,o),
(275,555,cs),
(182,555,o),
(94,531,o),
(20,482,c),
(32,545,l),
(102,377,l),
(59,380,l),
(127,421,o),
(192,440,o),
(253,440,cs),
(324,440,o),
(382,414,o),
(382,339,cs),
(382,177,l),
(402,128,l),
(402,39,o),
(451,-10,o),
(528,-10,cs),
(567,-10,o),
(607,2,o),
(642,21,c),
(637,-54,l),
(579,160,l),
(624,116,l)
);
},
{
closed = 1;
nodes = (
(328,-10,o),
(409,61,o),
(436,178,c),
(382,239,l),
(375,157,o),
(322,104,o),
(247,104,cs),
(201,104,o),
(175,124,o),
(175,163,cs),
(175,212,o),
(215,238,o),
(285,238,cs),
(322,238,o),
(362,231,o),
(400,220,c),
(410,309,l),
(369,324,o),
(313,335,o),
(258,335,cs),
(122,335,o),
(33,267,o),
(33,154,cs),
(33,52,o),
(107,-10,o),
(214,-10,cs)
);
}
);
width = 620;
},
{
anchors = (
{
name = bottom;
pos = (308,0);
},
{
name = ogonek;
pos = (570,0);
},
{
name = top;
pos = (308,545);
}
);
associatedMasterId = m009;
background = {
shapes = (
{
closed = 1;
nodes = (
(437,0,l),
(423,107,l),
(423,362,l),
(423,380,o),
(418,395,o),
(408,406,c),
(397,418,o),
(382,426,o),
(362,431,c),
(342,437,o),
(318,439,o),
(290,439,c),
(286,439,l),
(283,439,l),
(254,439,o),
(223,436,o),
(191,429,c),
(158,422,o),
(133,414,o),
(113,404,c),
(77,508,l),
(104,521,o),
(140,533,o),
(184,542,c),
(228,551,o),
(275,555,o),
(324,555,c),
(401,555,o),
(461,541,o),
(505,512,c),
(548,484,o),
(570,433,o),
(570,361,c),
(570,0,l)
);
},
{
closed = 1;
nodes = (
(222,-10,l),
(190,-10,o),
(160,-4,o),
(132,9,c),
(104,21,o),
(81,40,o),
(64,64,c),
(47,88,o),
(39,117,o),
(39,149,c),
(39,152,l),
(39,199,o),
(57,238,o),
(95,269,c),
(133,299,o),
(189,318,o),
(263,324,c),
(452,340,l),
(452,254,l),
(298,240,l),
(265,237,o),
(241,229,o),
(224,217,c),
(207,205,o),
(199,188,o),
(199,168,c),
(199,143,o),
(207,125,o),
(222,112,c),
(238,99,o),
(259,93,o),
(284,93,c),
(308,93,o),
(330,98,o),
(351,108,c),
(372,118,o),
(389,133,o),
(403,151,c),
(416,170,o),
(423,193,o),
(423,220,c),
(476,178,l),
(466,134,o),
(449,98,o),
(424,70,c),
(399,42,o),
(369,21,o),
(335,9,c),
(301,-4,o),
(266,-10,o),
(229,-10,c)
);
}
);
};
layerId = "90AA5CBF-A596-42C0-9008-AC44A3E9C24E";
name = "28 Oct 22 11.52";
shapes = (
{
closed = 1;
nodes = (
(590,95,o),
(570,106,o),
(570,146,cs),
(570,356,ls),
(570,482,o),
(480,555,o),
(323,555,cs),
(225,555,o),
(119,527,o),
(38,479,c),
(84,537,l),
(136,379,l),
(71,372,l),
(154,419,o),
(222,440,o),
(288,440,cs),
(360,440,o),
(424,414,o),
(424,339,cs),
(424,128,ls),
(424,39,o),
(474,-10,o),
(546,-10,cs),
(594,-10,o),
(638,12,o),
(676,46,c),
(646,-69,l),
(607,151,l),
(637,109,l)
);
},
{
closed = 1;
nodes = (
(357,-10,o),
(447,63,o),
(476,178,c),
(422,239,l),
(415,150,o),
(359,89,o),
(275,89,cs),
(224,89,o),
(192,117,o),
(192,160,cs),
(192,233,o),
(281,261,o),
(442,233,c),
(452,307,l),
(210,362,o),
(40,296,o),
(40,151,cs),
(40,53,o),
(117,-10,o),
(232,-10,cs)
);
}
);
width = 642;
}
);
},
{
glyphname = b.001;
lastChange = "2022-12-13 03:17:50 +0000";
layers = (
{
anchors = (
{
name = bottom;
pos = (264,0);
},
{
name = top;
pos = (264,750);
}
);
background = {
shapes = (
{
closed = 1;
nodes = (
(157,0,l),
(199,106,l),
(199,168,l),
(188,201,l),
(188,373,l),
(199,410,l),
(199,740,l),
(53,740,l),
(53,0,l)
);
},
{
closed = 1;
nodes = (
(505,-10,o),
(620,99,o),
(620,276,cs),
(620,447,o),
(515,555,o),
(375,555,cs),
(286,555,o),
(215,511,o),
(170,441,c),
(165,103,l),
(215,27,o),
(281,-10,o),
(370,-10,cs)
);
},
{
closed = 1;
nodes = (
(246,107,o),
(189,177,o),
(189,272,cs),
(189,367,o),
(246,435,o),
(332,435,cs),
(415,435,o),
(471,376,o),
(471,274,cs),
(471,169,o),
(411,107,o),
(329,107,cs)
);
}
);
};
layerId = m009;
shapes = (
{
closed = 1;
nodes = (
(157,0,l),
(199,106,l),
(199,168,l),
(188,201,l),
(188,373,l),
(199,410,l),
(199,740,l),
(53,740,l),
(53,0,l)
);
},
{
closed = 1;
nodes = (
(505,-10,o),
(620,99,o),
(620,276,cs),
(620,447,o),
(515,555,o),
(375,555,cs),
(286,555,o),
(215,511,o),
(170,441,c),
(165,103,l),
(215,27,o),
(281,-10,o),
(370,-10,cs)
);
},
{
closed = 1;
nodes = (
(246,107,o),
(189,177,o),
(189,272,cs),
(189,367,o),
(246,435,o),
(332,435,cs),
(415,435,o),
(471,376,o),
(471,274,cs),
(471,169,o),
(411,107,o),
(329,107,cs)
);
}
);
width = 655;
},
{
anchors = (
{
name = bottom;
pos = (343,0);
},
{
name = top;
pos = (343,750);
}
);
associatedMasterId = m009;
background = {
shapes = (
{
closed = 1;
nodes = (
(377,110,o),
(403,117,o),
(426,132,c),
(449,147,o),
(467,166,o),
(480,190,c),
(492,214,o),
(498,240,o),
(498,267,c),
(498,273,l),
(498,303,o),
(492,330,o),
(479,354,c),
(466,377,o),
(449,396,o),
(426,410,c),
(403,424,o),
(377,430,o),
(348,430,c),
(317,430,o),
(291,423,o),
(268,409,c),
(246,394,o),
(229,375,o),
(217,351,c),
(205,327,o),
(200,301,o),
(200,272,c),
(200,263,l),
(200,234,o),
(206,208,o),
(219,185,c),
(231,162,o),
(249,143,o),
(271,130,c),
(294,117,o),
(319,110,o),
(347,110,c)
);
},
{
closed = 1;
nodes = (
(344,-10,o),
(310,-4,o),
(279,8,c),
(249,21,o),
(224,37,o),
(204,58,c),
(184,79,o),
(168,102,o),
(158,128,c),
(158,410,l),
(166,437,o),
(179,461,o),
(198,482,c),
(217,504,o),
(242,521,o),
(272,533,c),
(302,545,o),
(336,552,o),
(374,552,c),
(427,552,o),
(474,539,o),
(515,514,c),
(556,489,o),
(587,455,o),
(610,413,c),
(633,370,o),
(644,324,o),
(644,273,c),
(644,264,l),
(644,211,o),
(633,163,o),
(610,122,c),
(587,81,o),
(555,48,o),
(515,25,c),
(475,1,o),
(431,-10,o),
(383,-10,c)
);
},
{
closed = 1;
nodes = (
(53,0,l),
(53,740,l),
(200,740,l),
(200,106,l),
(187,0,l)
);
}
);
};
layerId = "39D93B3F-3BBE-4227-9F9A-0897DBA04697";
name = "28 Oct 22 12.03";
shapes = (
{
closed = 1;
nodes = (
(167,0,l),
(199,106,l),
(199,740,l),
(53,740,l),
(53,0,l)
);
},
{
closed = 1;
nodes = (
(522,-10,o),
(637,99,o),
(637,276,cs),
(637,447,o),
(532,555,o),
(392,555,cs),
(303,555,o),
(232,511,o),
(187,441,c),
(182,103,l),
(232,27,o),
(298,-10,o),
(387,-10,cs)
);
},
{
closed = 1;
nodes = (
(263,107,o),
(206,177,o),
(206,272,cs),
(206,367,o),
(263,435,o),
(349,435,cs),
(432,435,o),
(488,376,o),
(488,274,cs),
(488,169,o),
(428,107,o),
(346,107,cs)
);
}
);
width = 660;
}
);
},
{
glyphname = h.001;
lastChange = "2022-12-13 03:17:50 +0000";
layers = (
{
anchors = (
{
name = connect;
pos = (153,0);
}
);
background = {
shapes = (
{
pos = (32,0);
ref = n.001;
}
);
};
layerId = m009;
shapes = (
{
closed = 1;
nodes = (
(153,0,l),
(153,750,l),
(77,750,l),
(77,0,l)
);
},
{
closed = 1;
nodes = (
(504,0,l),
(504,338,ls),
(504,477,o),
(435,555,o),
(312,555,cs),
(232,555,o),
(162,510,o),
(122,431,c),
(153,376,l),
(158,440,o),
(213,484,o),
(288,484,cs),
(384,484,o),
(428,439,o),
(428,341,cs),
(428,0,l)
);
}
);
width = 577;
}
);
metricLeft = l;
metricRight = n;
},
{
glyphname = l.001;
lastChange = "2022-12-13 03:17:50 +0000";
layers = (
{
background = {
shapes = (
{
pos = (-358,0);
ref = a.001;
}
);
};
layerId = m009;
shapes = (
{
closed = 1;
nodes = (
(159,-10,o),
(178,-8,o),
(198,2,c),
(182,52,l),
(176,50,o),
(171,49,o),
(166,49,cs),
(144,49,o),
(124,65,o),
(124,120,cs),
(124,740,l),
(48,740,l),
(48,113,ls),
(48,44,o),
(79,-10,o),
(146,-10,cs)
);
}
);
width = 293;
}
);
},
{
glyphname = l.002;
lastChange = "2022-12-13 03:17:50 +0000";
layers = (
{
background = {
shapes = (
{
closed = 1;
nodes = (
(265,-10,o),
(341,12,o),
(365,35,c),
(352,-69,l),
(302,200,l),
(348,124,l),
(307,113,o),
(282,109,o),
(261,109,cs),
(212,109,o),
(194,131,o),
(194,189,cs),
(194,740,l),
(48,740,l),
(48,163,ls),
(48,59,o),
(112,-10,o),
(210,-10,cs)
);
}
);
};
layerId = m009;
shapes = (
{
closed = 1;
nodes = (
(265,107,l),
(256,104,o),
(247,102,o),
(236,102,cs),
(206,102,o),
(194,116,o),
(194,158,cs),
(194,740,l),
(48,740,l),
(48,153,ls),
(48,44,o),
(111,-10,o),
(202,-10,cs),
(237,-10,o),
(268,-2,o),
(292,11,c)
);
}
);
width = 293;
}
);
},
{
glyphname = m.001;
lastChange = "2022-12-13 03:17:50 +0000";
layers = (
{
anchors = (
{
name = connect;
pos = (158,0);
}
);
layerId = m009;
shapes = (
{
closed = 1;
nodes = (
(158,0,l),
(158,466,l),
(147,466,l),
(115,545,l),
(82,545,l),
(82,0,l)
);
},
{
closed = 1;
nodes = (
(492,0,l),
(492,338,ls),
(492,479,o),
(426,555,o),
(317,555,cs),
(232,555,o),
(165,508,o),
(127,432,c),
(158,359,l),
(167,440,o),
(217,485,o),
(294,484,cs),
(381,483,o),
(416,443,o),
(416,346,cs),
(416,0,l)
);
},
{
closed = 1;
nodes = (
(824,0,l),
(824,338,ls),
(824,479,o),
(758,555,o),
(649,555,cs),
(560,555,o),
(495,509,o),
(458,432,c),
(492,352,l),
(498,435,o),
(553,485,o),
(626,484,cs),
(717,483,o),
(748,439,o),
(748,346,cs),
(748,0,l)
);
}
);
width = 897;
}
);
metricLeft = n;
metricRight = n;
},
{
glyphname = m.002;
lastChange = "2022-12-13 03:17:50 +0000";
layers = (
{
anchors = (
{
name = connect;
pos = (169,0);
}
);
background = {
shapes = (
{
pos = (-2,0);
ref = n.ss02;
}
);
};
layerId = m009;
shapes = (
{
closed = 1;
nodes = (
(169,0,l),
(169,475,l),
(154,545,l),
(82,545,l),
(93,475,l),
(93,0,l)
);
},
{
closed = 1;
nodes = (
(503,0,l),
(503,338,ls),
(503,479,o),
(437,555,o),
(328,555,cs),
(243,555,o),
(176,501,o),
(138,425,c),
(169,359,l),
(178,440,o),
(228,485,o),
(305,484,cs),
(392,483,o),
(427,443,o),
(427,346,cs),
(427,0,l)
);
},
{
closed = 1;
nodes = (
(835,0,l),
(835,338,ls),
(835,479,o),
(769,555,o),
(660,555,cs),
(571,555,o),
(506,509,o),
(469,432,c),
(503,352,l),
(509,435,o),
(564,485,o),
(637,484,cs),
(728,483,o),
(759,439,o),
(759,346,cs),
(759,0,l)
);
}
);
width = 908;
}
);
metricLeft = n;
metricRight = n;
},
{
glyphname = n.001;
lastChange = "2022-12-13 03:17:50 +0000";
layers = (
{
background = {
shapes = (
{
pos = (-22,0);
ref = a;
}
);
};
layerId = m009;
shapes = (
{
closed = 1;
nodes = (
(121,0,l),
(121,466,l),
(110,466,l),
(78,545,l),
(45,545,l),
(45,0,l)
);
},
{
closed = 1;
nodes = (
(472,0,l),
(472,338,ls),
(472,477,o),
(403,555,o),
(280,555,cs),
(200,555,o),
(130,510,o),
(90,431,c),
(121,376,l),
(126,440,o),
(181,484,o),
(256,484,cs),
(352,484,o),
(396,439,o),
(396,341,cs),
(396,0,l)
);
}
);
width = 506;
}
);
},
{
glyphname = a.ss01;
lastChange = "2022-12-13 03:17:50 +0000";
layers = (
{
anchors = (
{
name = bottom;
pos = (308,0);
},
{
name = ogonek;
pos = (570,0);
},
{
name = top;
pos = (308,545);
}
);
background = {
shapes = (
{
closed = 1;
nodes = (
(437,0,l),
(423,107,l),
(423,362,l),
(423,380,o),
(418,395,o),
(408,406,c),
(397,418,o),
(382,426,o),
(362,431,c),
(342,437,o),
(318,439,o),
(290,439,c),
(286,439,l),
(283,439,l),
(254,439,o),
(223,436,o),
(191,429,c),
(158,422,o),
(133,414,o),
(113,404,c),
(77,508,l),
(104,521,o),
(140,533,o),
(184,542,c),
(228,551,o),
(275,555,o),
(324,555,c),
(401,555,o),
(461,541,o),
(505,512,c),
(548,484,o),
(570,433,o),
(570,361,c),
(570,0,l)
);
},
{
closed = 1;
nodes = (
(222,-10,l),
(190,-10,o),
(160,-4,o),
(132,9,c),
(104,21,o),
(81,40,o),
(64,64,c),
(47,88,o),
(39,117,o),
(39,149,c),
(39,152,l),
(39,199,o),
(57,238,o),
(95,269,c),
(133,299,o),
(189,318,o),
(263,324,c),
(452,340,l),
(452,254,l),
(298,240,l),
(265,237,o),
(241,229,o),
(224,217,c),
(207,205,o),
(199,188,o),
(199,168,c),
(199,143,o),
(207,125,o),
(222,112,c),
(238,99,o),
(259,93,o),
(284,93,c),
(308,93,o),
(330,98,o),
(351,108,c),
(372,118,o),
(389,133,o),
(403,151,c),
(416,170,o),
(423,193,o),
(423,220,c),
(476,178,l),
(466,134,o),
(449,98,o),
(424,70,c),
(399,42,o),
(369,21,o),
(335,9,c),
(301,-4,o),
(266,-10,o),
(229,-10,c)
);
}
);
};
layerId = m009;
shapes = (
{
closed = 1;
nodes = (
(570,0,l),
(570,356,ls),
(570,482,o),
(480,555,o),
(323,555,cs),
(225,555,o),
(119,527,o),
(38,479,c),
(84,537,l),
(136,379,l),
(71,372,l),
(154,419,o),
(222,440,o),
(288,440,cs),
(360,440,o),
(424,414,o),
(424,339,cs),
(424,107,l),
(446,0,l)
);
},
{
closed = 1;
nodes = (
(357,-10,o),
(447,63,o),
(476,178,c),
(423,239,l),
(416,150,o),
(359,89,o),
(275,89,cs),
(224,89,o),
(192,117,o),
(192,160,cs),
(192,233,o),
(281,261,o),
(442,233,c),
(452,307,l),
(210,362,o),
(40,296,o),
(40,151,cs),
(40,53,o),
(117,-10,o),
(232,-10,cs)
);
}
);
width = 625;
}
);
},
{
glyphname = n.ss02;
lastChange = "2022-12-13 03:17:50 +0000";
layers = (
{
anchors = (
{
name = connect;
pos = (171,0);
}
);
background = {
shapes = (
{
pos = (28,0);
ref = a;
}
);
};
guides = (
{
pos = (303,398);
}
);
layerId = m009;
shapes = (
{
closed = 1;
nodes = (
(171,0,l),
(171,474,l),
(156,545,l),
(84,545,l),
(95,474,l),
(95,0,l)
);
},
{
closed = 1;
nodes = (
(522,0,l),
(522,338,ls),
(522,478,o),
(452,555,o),
(327,555,cs),
(250,555,o),
(184,511,o),
(145,432,c),
(171,379,l),
(177,441,o),
(231,484,o),
(306,484,cs),
(404,484,o),
(446,437,o),
(446,341,cs),
(446,0,l)
);
}
);
width = 606;
}
);
},
{
glyphname = y.001;
lastChange = "2022-12-13 03:17:50 +0000";
layers = (
{
anchors = (
{
name = top;
pos = (281,545);
}
);
background = {
shapes = (
{
closed = 1;
nodes = (
(215,-212,o),
(277,-156,o),
(340,0,cs),
(561,545,l),
(411,545,l),
(271,132,l),
(288,132,l),
(140,545,l),
(-13,545,l),
(215,0,l),
(253,0,l),
(225,37,l),
(200,-79,o),
(155,-100,o),
(113,-100,cs),
(76,-100,o),
(42,-83,o),
(19,-60,c),
(76,-50,l),
(13,-227,l),
(9,-164,l),
(39,-192,o),
(74,-212,o),
(127,-212,cs)
);
}
);
};
layerId = m009;
shapes = (
{
closed = 1;
nodes = (
(215,-212,o),
(277,-156,o),
(340,0,cs),
(561,545,l),
(411,545,l),
(271,132,l),
(288,132,l),
(140,545,l),
(-13,545,l),
(215,0,l),
(253,0,l),
(225,37,l),
(200,-79,o),
(155,-100,o),
(113,-100,cs),
(76,-100,o),
(42,-83,o),
(19,-60,c),
(76,-50,l),
(13,-227,l),
(9,-164,l),
(39,-192,o),
(74,-212,o),
(127,-212,cs)
);
}
);
width = 553;
},
{
anchors = (
{
name = bottom;
pos = (266,0);
},
{
name = top;
pos = (266,545);
}
);
associatedMasterId = m009;
background = {
shapes = (
{
closed = 1;
nodes = (
(104,-186,o),
(87,-184,o),
(68,-178,c),
(49,-173,o),
(33,-168,o),
(20,-161,c),
(41,-60,l),
(42,-60,o),
(44,-60,o),
(45,-61,c),
(46,-61,o),
(48,-61,o),
(49,-61,c),
(63,-65,o),
(77,-66,o),
(91,-66,c),
(111,-66,o),
(128,-63,o),
(140,-57,c),
(153,-50,o),
(163,-40,o),
(171,-25,c),
(180,-10,o),
(188,10,o),
(196,37,c),
(206,73,l),
(324,73,l),
(315,1,l),
(300,-33,l),
(297,-38,o),
(294,-43,o),
(292,-47,c),
(290,-52,o),
(288,-57,o),
(286,-61,c),
(272,-94,o),
(257,-118,o),
(243,-136,c),
(228,-153,o),
(211,-166,o),
(192,-174,c),
(172,-182,o),
(148,-186,o),
(120,-186,c)
);
},
{
closed = 1;
nodes = (
(195,1,l),
(-34,545,l),
(107,545,l),
(269,158,l),
(249,158,l),
(398,545,l),
(541,545,l),
(315,1,l)
);
}
);
};
layerId = "465E898B-A340-4BA7-806E-E5599B776A13";
name = "28 Oct 22 12.01";
shapes = (
{
closed = 1;
nodes = (
(221,-186,o),
(266,-134,o),
(320,0,cs),
(541,545,l),
(388,545,l),
(253,144,l),
(270,144,l),
(120,545,l),
(-33,545,l),
(195,0,l),
(233,0,l),
(195,37,l),
(201,-49,o),
(144,-67,o),
(106,-67,cs),
(58,-67,o),
(17,-50,o),
(-7,-39,c),
(52,-20,l),
(13,-197,l),
(-15,-146,l),
(23,-166,o),
(79,-186,o),
(125,-186,cs)
);
}
);
width = 508;
}
);
},
{
glyphname = period;
kernLeft = period;
kernRight = period;
lastChange = "2022-10-27 07:12:06 +0000";
layers = (
{
layerId = m009;
shapes = (
{
closed = 1;
nodes = (
(180,0,l),
(180,153,l),
(19,153,l),
(19,0,l)
);
}
);
width = 199;
}
);
unicode = 46;
},
{
export = 0;
glyphname = _perut_b;
lastChange = "2022-12-13 03:01:55 +0000";
layers = (
{
layerId = m009;
shapes = (
{
closed = 1;
nodes = (
(454,-10,o),
(556,107,o),
(556,278,cs),
(556,446,o),
(459,555,o),
(334,555,cs),
(264,555,o),
(203,521,o),
(163,469,c),
(134,469,l),
(128,76,l),
(163,76,l),
(191,24,o),
(256,-10,o),
(325,-10,cs)
);
},
{
closed = 1;
nodes = (
(226,63,o),
(159,132,o),
(159,274,cs),
(159,425,o),
(236,484,o),
(315,484,cs),
(409,484,o),
(478,401,o),
(478,268,cs),
(478,148,o),
(412,63,o),
(314,63,cs)
);
}
);
width = 601;
}
);
},
{
export = 0;
glyphname = _perut_d;
lastChange = "2022-12-13 03:02:49 +0000";
layers = (
{
layerId = m009;
shapes = (
{
closed = 1;
nodes = (
(345,-10,o),
(408,23,o),
(441,80,c),
(476,80,l),
(470,469,l),
(440,469,l),
(404,519,o),
(349,555,o),
(276,555,cs),
(150,555,o),
(45,446,o),
(45,273,cs),
(45,99,o),
(153,-10,o),
(277,-10,cs)
);
},
{
closed = 1;
nodes = (
(188,62,o),
(123,139,o),
(123,274,cs),
(123,412,o),
(187,485,o),
(283,485,cs),
(376,485,o),
(451,417,o),
(451,274,cs),
(451,132,o),
(385,62,o),
(289,62,cs)
);
}
);
width = 604;
}
);
},
{
export = 0;
glyphname = _ytail;
lastChange = "2022-12-13 03:14:59 +0000";
layers = (
{
anchors = (
{
name = _ytail;
pos = (250,0);
}
);
layerId = m009;
shapes = (
{
closed = 1;
nodes = (
(9,-149,l),
(43,-174,o),
(73,-187,o),
(115,-187,cs),
(185,-187,o),
(230,-147,o),
(256,-77,cs),
(285,0,l),
(286,34,l),
(230,34,l),
(211,-26,ls),
(190,-94,o),
(160,-122,o),
(113,-122,cs),
(80,-122,o),
(52,-109,o),
(26,-88,c),
(71,-55,l),
(9,-211,l)
);
}
);
width = 501;
}
);
},
{
export = 0;
glyphname = _part.shoulder;
lastChange = "2022-12-13 02:53:47 +0000";
layers = (
{
anchors = (
{
name = _connect;
pos = (129,0);
},
{
name = connect;
pos = (480,0);
}
);
background = {
shapes = (
{
pos = (1,0);
ref = a;
}
);
};
layerId = m009;
partSelection = {
crotchDepth = 2;
shoulderWidth = 2;
};
shapes = (
{
closed = 1;
nodes = (
(480,0,l),
(480,341,ls),
(480,478,o),
(411,555,o),
(296,555,cs),
(225,555,o),
(170,525,o),
(132,469,c),
(121,469,l),
(121,336,l),
(129,336,l),
(140,422,o),
(195,487,o),
(281,487,cs),
(362,487,o),
(403,430,o),
(403,341,cs),
(403,0,l)
);
}
);
width = 525;
},
{
anchors = (
{
name = _connect;
pos = (129,0);
},
{
name = connect;
pos = (470,0);
}
);
associatedMasterId = m009;
background = {
shapes = (
{
pos = (1,0);
ref = a;
}
);
};
layerId = "F4F44C10-E8E8-4745-80A2-0AC5EE456540";
name = NarrowShoulder;
partSelection = {
crotchDepth = 2;
shoulderWidth = 1;
};
shapes = (
{
closed = 1;
nodes = (
(470,0,l),
(470,338,ls),
(470,477,o),
(401,555,o),
(279,555,cs),
(225,555,o),
(170,525,o),
(132,469,c),
(121,469,l),
(121,366,l),
(129,366,l),
(135,425,o),
(193,485,o),
(257,485,cs),
(350,485,o),
(394,439,o),
(394,341,cs),
(394,0,l)
);
}
);
width = 525;
},
{
anchors = (
{
name = _connect;
pos = (129,0);
},
{
name = connect;
pos = (470,0);
}
);
associatedMasterId = m009;
background = {
shapes = (
{
pos = (1,0);
ref = a;
}
);
};
layerId = "B7069A0C-5FB5-476E-9546-F60CC2642544";
name = LowCrotch;
partSelection = {
crotchDepth = 1;
shoulderWidth = 2;
};
shapes = (
{
closed = 1;
nodes = (
(470,0,l),
(470,338,ls),
(470,477,o),
(401,555,o),
(296,555,cs),
(212,555,o),
(151,517,o),
(116,442,c),
(106,442,l),
(121,321,l),
(129,321,l),
(135,416,o),
(197,485,o),
(276,485,cs),
(350,485,o),
(394,439,o),
(394,341,cs),
(394,0,l)
);
}
);
width = 525;
}
);
partsSettings = (
{
bottomValue = -100;
name = crotchDepth;
topValue = 0;
},
{
bottomValue = 0;
name = shoulderWidth;
topValue = 100;
}
);
},
{
export = 0;
glyphname = _part.stem;
lastChange = "2022-12-13 02:53:56 +0000";
layers = (
{
anchors = (
{
name = connect;
pos = (121,0);
}
);
background = {
shapes = (
{
pos = (-8,0);
ref = _part.shoulder;
}
);
};
layerId = m009;
shapes = (
{
closed = 1;
nodes = (
(121,0,l),
(121,466,l),
(101,545,l),
(44,545,l),
(44,0,l)
);
}
);
width = 525;
}
);
},
